<svg width="250" height="54" viewBox="0 0 250 54" fill="none" xmlns="http://www.w3.org/2000/svg">
<rect width="250" height="54" rx="13" fill="#3498DB"/>
<path d="M36.2373 28.7051H38.4395V29.5859C38.4395 31.4408 38.0169 32.8444 37.1719 33.7969C36.3268 34.7422 35.1309 35.2148 33.584 35.2148C32.0371 35.2148 30.8376 34.7386 29.9854 33.7861C29.1403 32.8337 28.7178 31.4336 28.7178 29.5859V23.9141C28.7178 22.0664 29.1403 20.6663 29.9854 19.7139C30.8376 18.7614 32.0371 18.2852 33.584 18.2852C35.1309 18.2852 36.3268 18.7614 37.1719 19.7139C38.0169 20.6592 38.4395 22.0592 38.4395 23.9141V24.5693H36.2373V23.9141C36.2373 22.6393 36.0117 21.7191 35.5605 21.1533C35.1165 20.5876 34.4577 20.3047 33.584 20.3047C32.7174 20.3047 32.055 20.5876 31.5967 21.1533C31.1455 21.7191 30.9199 22.6393 30.9199 23.9141V29.5859C30.9199 30.8607 31.1455 31.7809 31.5967 32.3467C32.0479 32.9124 32.7103 33.1953 33.584 33.1953C34.4505 33.1953 35.1094 32.9124 35.5605 32.3467C36.0117 31.7809 36.2373 30.8607 36.2373 29.5859V28.7051ZM50.2236 33.6143C49.1709 34.6813 47.8424 35.2148 46.2383 35.2148C44.6341 35.2148 43.3057 34.6813 42.2529 33.6143C41.2002 32.54 40.6738 31.1686 40.6738 29.5C40.6738 27.8314 41.2002 26.4635 42.2529 25.3965C43.3057 24.3223 44.6341 23.7852 46.2383 23.7852C47.8424 23.7852 49.1709 24.3223 50.2236 25.3965C51.2764 26.4635 51.8027 27.8314 51.8027 29.5C51.8027 31.1686 51.2764 32.54 50.2236 33.6143ZM43.832 32.1748C44.4694 32.8551 45.2715 33.1953 46.2383 33.1953C47.2051 33.1953 48.0072 32.8551 48.6445 32.1748C49.2819 31.4873 49.6006 30.5957 49.6006 29.5C49.6006 28.4043 49.2819 27.5163 48.6445 26.8359C48.0072 26.1484 47.2051 25.8047 46.2383 25.8047C45.2715 25.8047 44.4694 26.1484 43.832 26.8359C43.1947 27.5163 42.876 28.4043 42.876 29.5C42.876 30.5957 43.1947 31.4873 43.832 32.1748ZM58.71 30.2305H56.9805V28.5762H58.71C59.9417 28.5762 60.5576 28.0856 60.5576 27.1045C60.5576 26.6247 60.3678 26.2451 59.9883 25.9658C59.6087 25.6794 59.0501 25.5361 58.3125 25.5361C57.5104 25.5361 56.891 25.7295 56.4541 26.1162C56.0244 26.4958 55.8096 27.0365 55.8096 27.7383H53.6074C53.6074 26.5996 54.0192 25.6579 54.8428 24.9131C55.6663 24.1611 56.8229 23.7852 58.3125 23.7852C59.709 23.7852 60.7832 24.0824 61.5352 24.6768C62.2943 25.264 62.6738 26.0124 62.6738 26.9219C62.6738 27.4733 62.5306 27.971 62.2441 28.415C61.9648 28.8519 61.5638 29.1849 61.041 29.4141C62.3086 29.8438 62.9424 30.6709 62.9424 31.8955C62.9424 32.9411 62.5449 33.7575 61.75 34.3447C60.9551 34.9248 59.8092 35.2148 58.3125 35.2148C56.7656 35.2148 55.5661 34.8604 54.7139 34.1514C53.8617 33.4352 53.4355 32.4219 53.4355 31.1113H55.6377C55.6377 31.8704 55.8633 32.4577 56.3145 32.873C56.7728 33.2812 57.446 33.4854 58.334 33.4854C59.1504 33.4854 59.7555 33.335 60.1494 33.0342C60.5433 32.7334 60.7402 32.3324 60.7402 31.8311C60.7402 31.3226 60.5612 30.9287 60.2031 30.6494C59.8451 30.3701 59.3473 30.2305 58.71 30.2305ZM74.4795 37.9648V35H66.4014V37.9648H64.3818V32.9805H65.4561C65.7855 32.3646 66.0326 31.4479 66.1973 30.2305C66.3691 29.013 66.4658 26.9362 66.4873 24H74.9629V32.9805H76.499V37.9648H74.4795ZM68.249 30.3594C68.0915 31.5482 67.9017 32.4219 67.6797 32.9805H72.7607V26.0195H68.4961C68.4746 27.7956 68.3923 29.2422 68.249 30.3594ZM85.7158 35V33.1523C85.3649 33.847 84.8636 34.3662 84.2119 34.71C83.5602 35.0465 82.819 35.2148 81.9883 35.2148C81.3079 35.2148 80.6921 35.111 80.1406 34.9033C79.5964 34.6956 79.1452 34.3519 78.7871 33.8721C78.429 33.3851 78.25 32.7943 78.25 32.0996C78.25 31.4551 78.3861 30.9144 78.6582 30.4775C78.9303 30.0335 79.2848 29.7041 79.7217 29.4893C80.1585 29.2744 80.6383 29.1061 81.1611 28.9844C81.6911 28.8555 82.2174 28.7588 82.7402 28.6943C83.2702 28.6227 83.7536 28.5439 84.1904 28.458C84.6273 28.3649 84.9818 28.2181 85.2539 28.0176C85.526 27.8171 85.6621 27.5485 85.6621 27.2119C85.6621 26.6891 85.4401 26.2809 84.9961 25.9873C84.5521 25.6865 83.9827 25.5361 83.2881 25.5361C82.5505 25.5361 81.9632 25.7223 81.5264 26.0947C81.0895 26.4671 80.8711 27.0007 80.8711 27.6953H78.583C78.583 27.1439 78.6689 26.6462 78.8408 26.2021C79.0127 25.7581 79.2454 25.3893 79.5391 25.0957C79.8327 24.7949 80.18 24.5479 80.5811 24.3545C80.9893 24.154 81.4154 24.0107 81.8594 23.9248C82.3105 23.8317 82.7868 23.7852 83.2881 23.7852C83.904 23.7852 84.4769 23.8496 85.0068 23.9785C85.5368 24.1074 86.0202 24.3079 86.457 24.5801C86.8939 24.8451 87.2376 25.2103 87.4883 25.6758C87.7389 26.1413 87.8643 26.682 87.8643 27.2979V35H85.7158ZM80.4951 31.96C80.4951 32.4183 80.6706 32.7692 81.0215 33.0127C81.3796 33.249 81.8486 33.3672 82.4287 33.3672C83.3382 33.3672 84.1117 33.113 84.749 32.6045C85.3936 32.0889 85.7158 31.3763 85.7158 30.4668V29.6719C85.3936 29.8294 84.9782 29.9655 84.4697 30.0801C83.9613 30.1875 83.4922 30.277 83.0625 30.3486C82.6328 30.4131 82.2139 30.5026 81.8057 30.6172C81.4046 30.7246 81.0859 30.8893 80.8496 31.1113C80.6133 31.3262 80.4951 31.609 80.4951 31.96ZM89.6045 26.0195V24H98.9287V26.0195H95.3623V35H93.1709V26.0195H89.6045ZM109.821 31.3047C109.821 32.4219 109.456 33.3171 108.726 33.9902C108.002 34.6634 106.967 35 105.621 35H100.959V24H103.15V27.6309H105.6C106.91 27.6309 107.941 27.9674 108.693 28.6406C109.445 29.3066 109.821 30.1947 109.821 31.3047ZM105.417 29.4785H103.15V33.1523H105.417C106.885 33.1523 107.619 32.5293 107.619 31.2832C107.619 30.0801 106.885 29.4785 105.417 29.4785ZM121.949 36.2354C121.749 36.8083 121.552 37.2988 121.358 37.707C121.172 38.1224 120.943 38.527 120.671 38.9209C120.406 39.3148 120.116 39.6299 119.801 39.8662C119.493 40.1097 119.12 40.3031 118.684 40.4463C118.254 40.5967 117.774 40.6719 117.244 40.6719C116.657 40.6719 116.105 40.5931 115.59 40.4355V38.502C116.105 38.6595 116.592 38.7383 117.051 38.7383C117.724 38.7383 118.272 38.5378 118.694 38.1367C119.124 37.7428 119.521 37.1019 119.887 36.2139L115.525 24H117.728L120.918 33.2168L124.087 24H126.289L121.949 36.2354ZM132.444 29.1885C132.731 29.1885 133.007 29.1777 133.271 29.1562C133.544 29.1276 133.751 29.1025 133.895 29.0811C134.038 29.0524 134.188 29.0202 134.346 28.9844C134.503 28.9486 134.589 28.9307 134.604 28.9307V24H136.806V35H134.604V30.9072C133.708 31.1149 132.931 31.2188 132.272 31.2188C130.632 31.2188 129.419 30.8428 128.631 30.0908C127.843 29.3389 127.449 28.1429 127.449 26.5029V24H129.651V26.4814C129.651 27.4411 129.884 28.1322 130.35 28.5547C130.815 28.9772 131.513 29.1885 132.444 29.1885ZM146.925 35V33.1523C146.574 33.847 146.073 34.3662 145.421 34.71C144.769 35.0465 144.028 35.2148 143.197 35.2148C142.517 35.2148 141.901 35.111 141.35 34.9033C140.805 34.6956 140.354 34.3519 139.996 33.8721C139.638 33.3851 139.459 32.7943 139.459 32.0996C139.459 31.4551 139.595 30.9144 139.867 30.4775C140.139 30.0335 140.494 29.7041 140.931 29.4893C141.368 29.2744 141.847 29.1061 142.37 28.9844C142.9 28.8555 143.426 28.7588 143.949 28.6943C144.479 28.6227 144.963 28.5439 145.399 28.458C145.836 28.3649 146.191 28.2181 146.463 28.0176C146.735 27.8171 146.871 27.5485 146.871 27.2119C146.871 26.6891 146.649 26.2809 146.205 25.9873C145.761 25.6865 145.192 25.5361 144.497 25.5361C143.759 25.5361 143.172 25.7223 142.735 26.0947C142.299 26.4671 142.08 27.0007 142.08 27.6953H139.792C139.792 27.1439 139.878 26.6462 140.05 26.2021C140.222 25.7581 140.454 25.3893 140.748 25.0957C141.042 24.7949 141.389 24.5479 141.79 24.3545C142.198 24.154 142.624 24.0107 143.068 23.9248C143.52 23.8317 143.996 23.7852 144.497 23.7852C145.113 23.7852 145.686 23.8496 146.216 23.9785C146.746 24.1074 147.229 24.3079 147.666 24.5801C148.103 24.8451 148.447 25.2103 148.697 25.6758C148.948 26.1413 149.073 26.682 149.073 27.2979V35H146.925ZM141.704 31.96C141.704 32.4183 141.88 32.7692 142.23 33.0127C142.589 33.249 143.058 33.3672 143.638 33.3672C144.547 33.3672 145.321 33.113 145.958 32.6045C146.603 32.0889 146.925 31.3763 146.925 30.4668V29.6719C146.603 29.8294 146.187 29.9655 145.679 30.0801C145.17 30.1875 144.701 30.277 144.271 30.3486C143.842 30.4131 143.423 30.5026 143.015 30.6172C142.614 30.7246 142.295 30.8893 142.059 31.1113C141.822 31.3262 141.704 31.609 141.704 31.96ZM159.944 28.3828C159.837 27.5736 159.49 26.9434 158.902 26.4922C158.322 26.0339 157.62 25.8047 156.797 25.8047C155.852 25.8047 155.067 26.1484 154.444 26.8359C153.828 27.5163 153.521 28.4043 153.521 29.5C153.521 30.5957 153.828 31.4873 154.444 32.1748C155.067 32.8551 155.852 33.1953 156.797 33.1953C157.635 33.1953 158.347 32.9482 158.935 32.4541C159.529 31.96 159.88 31.2689 159.987 30.3809H162.275C162.189 31.8203 161.631 32.9876 160.6 33.8828C159.576 34.7708 158.308 35.2148 156.797 35.2148C155.214 35.2148 153.904 34.6813 152.865 33.6143C151.834 32.54 151.318 31.1686 151.318 29.5C151.318 27.8314 151.834 26.4635 152.865 25.3965C153.904 24.3223 155.214 23.7852 156.797 23.7852C158.258 23.7852 159.493 24.2113 160.503 25.0635C161.52 25.9085 162.096 27.015 162.232 28.3828H159.944ZM163.06 26.0195V24H172.384V26.0195H168.817V35H166.626V26.0195H163.06ZM181.891 35V30.4453H176.605V35H174.414V24H176.605V28.4473H181.891V24H184.093V35H181.891ZM189.453 24V32.7764L194.491 24H197.284V35H195.179V26.2236L190.141 35H187.348V24H189.453ZM207.994 35L202.73 29.21V35H200.539V24H202.73V28.8877L207.468 24H210.39L205.223 29.0166L210.787 35H207.994ZM219.112 35V33.1523C218.761 33.847 218.26 34.3662 217.608 34.71C216.957 35.0465 216.215 35.2148 215.385 35.2148C214.704 35.2148 214.089 35.111 213.537 34.9033C212.993 34.6956 212.542 34.3519 212.184 33.8721C211.826 33.3851 211.646 32.7943 211.646 32.0996C211.646 31.4551 211.783 30.9144 212.055 30.4775C212.327 30.0335 212.681 29.7041 213.118 29.4893C213.555 29.2744 214.035 29.1061 214.558 28.9844C215.088 28.8555 215.614 28.7588 216.137 28.6943C216.667 28.6227 217.15 28.5439 217.587 28.458C218.024 28.3649 218.378 28.2181 218.65 28.0176C218.923 27.8171 219.059 27.5485 219.059 27.2119C219.059 26.6891 218.837 26.2809 218.393 25.9873C217.949 25.6865 217.379 25.5361 216.685 25.5361C215.947 25.5361 215.36 25.7223 214.923 26.0947C214.486 26.4671 214.268 27.0007 214.268 27.6953H211.979C211.979 27.1439 212.065 26.6462 212.237 26.2021C212.409 25.7581 212.642 25.3893 212.936 25.0957C213.229 24.7949 213.576 24.5479 213.978 24.3545C214.386 24.154 214.812 24.0107 215.256 23.9248C215.707 23.8317 216.183 23.7852 216.685 23.7852C217.3 23.7852 217.873 23.8496 218.403 23.9785C218.933 24.1074 219.417 24.3079 219.854 24.5801C220.29 24.8451 220.634 25.2103 220.885 25.6758C221.135 26.1413 221.261 26.682 221.261 27.2979V35H219.112ZM213.892 31.96C213.892 32.4183 214.067 32.7692 214.418 33.0127C214.776 33.249 215.245 33.3672 215.825 33.3672C216.735 33.3672 217.508 33.113 218.146 32.6045C218.79 32.0889 219.112 31.3763 219.112 30.4668V29.6719C218.79 29.8294 218.375 29.9655 217.866 30.0801C217.358 30.1875 216.889 30.277 216.459 30.3486C216.029 30.4131 215.61 30.5026 215.202 30.6172C214.801 30.7246 214.482 30.8893 214.246 31.1113C214.01 31.3262 213.892 31.609 213.892 31.96Z" fill="white"/>
</svg>
