<svg width="45" height="45" viewBox="0 0 45 45" fill="none" xmlns="http://www.w3.org/2000/svg">
<rect width="45" height="45" rx="13" fill="#E74C3C"/>
<path d="M28.5374 16.4721C28.1637 16.0983 27.5599 16.0983 27.1862 16.4721L22.4999 21.1488L17.8137 16.4625C17.4399 16.0888 16.8362 16.0888 16.4624 16.4625C16.0887 16.8363 16.0887 17.44 16.4624 17.8138L21.1487 22.5L16.4624 27.1863C16.0887 27.56 16.0887 28.1638 16.4624 28.5375C16.8362 28.9113 17.4399 28.9113 17.8137 28.5375L22.4999 23.8513L27.1862 28.5375C27.5599 28.9113 28.1637 28.9113 28.5374 28.5375C28.9112 28.1638 28.9112 27.56 28.5374 27.1863L23.8512 22.5L28.5374 17.8138C28.9016 17.4496 28.9016 16.8363 28.5374 16.4721Z" fill="white"/>
</svg>
