<svg width="18" height="19" viewBox="0 0 18 19" fill="none" xmlns="http://www.w3.org/2000/svg">
<path fill-rule="evenodd" clip-rule="evenodd" d="M0.512076 1.01478C-0.0737105 1.60057 -0.0737104 2.55031 0.512076 3.1361L6.87575 9.49977L0.51185 15.8637C-0.0739363 16.4495 -0.0739365 17.3992 0.51185 17.985C1.09764 18.5708 2.04738 18.5708 2.63317 17.985L8.99707 11.6211L15.3613 17.9853C15.9471 18.5711 16.8969 18.5711 17.4826 17.9853C18.0684 17.3996 18.0684 16.4498 17.4826 15.864L11.1184 9.49977L17.4824 3.13575C18.0682 2.54997 18.0682 1.60022 17.4824 1.01443C16.8966 0.428647 15.9469 0.428648 15.3611 1.01443L8.99707 7.37845L2.6334 1.01478C2.04761 0.428993 1.09786 0.428993 0.512076 1.01478Z" fill="black"/>
</svg>
