<svg width="275" height="70" viewBox="0 0 275 70" fill="none" xmlns="http://www.w3.org/2000/svg">
<path d="M2.66001 38H7.22001V27.36H10.982C15.656 27.36 19 24.472 19 19.19V17.29C19 12.198 15.656 9.49999 10.982 9.49999H2.66001V38ZM10.602 13.68C12.958 13.68 14.44 14.782 14.44 17.67V18.81C14.44 21.926 12.958 23.18 10.602 23.18H7.22001V13.68H10.602Z" fill="black"/>
<path d="M27.3704 28.31C27.3704 25.118 29.3464 23.37 32.7284 23.37C33.4884 23.37 34.1724 23.484 34.7044 23.674V18.696C34.4764 18.62 34.0964 18.62 33.7544 18.62C30.9804 18.62 28.7384 19.836 27.3704 22.078V19H22.8104V38H27.3704V28.31Z" fill="black"/>
<path d="M46.4966 38.38C52.0446 38.38 56.1866 34.314 56.1866 28.5C56.1866 22.686 52.0446 18.62 46.4966 18.62C40.9486 18.62 36.8066 22.686 36.8066 28.5C36.8066 34.314 40.9486 38.38 46.4966 38.38ZM46.4966 34.2C43.5706 34.2 41.3666 31.92 41.3666 28.5C41.3666 25.08 43.5706 22.8 46.4966 22.8C49.4226 22.8 51.6266 25.08 51.6266 28.5C51.6266 31.92 49.4226 34.2 46.4966 34.2Z" fill="black"/>
<path d="M65.8795 16.264C65.8795 14.326 66.7915 13.3 68.3115 13.3C69.0715 13.3 69.8315 13.3 70.4395 13.49V9.30999C69.7935 9.12 68.8435 9.12 67.8935 9.12C64.1315 9.12 61.3195 11.742 61.3195 16.15V19H58.2795V22.99H61.3195V38H65.8795V22.99H73.0995V38H77.6595V19H65.8795V16.264ZM75.3795 15.2C77.0515 15.2 78.2295 13.946 78.2295 12.35C78.2295 10.716 77.0515 9.49999 75.3795 9.49999C73.7455 9.49999 72.5295 10.716 72.5295 12.35C72.5295 13.946 73.7455 15.2 75.3795 15.2Z" fill="black"/>
<path d="M87.5247 38V9.49999H82.9647V38H87.5247Z" fill="black"/>
<path d="M110.354 28.5C110.354 22.686 106.364 18.62 100.93 18.62C95.4958 18.62 91.5058 22.686 91.5058 28.5C91.5058 34.314 95.4958 38.38 100.93 38.38C105.414 38.38 108.72 36.252 109.86 32.3H104.92C104.312 33.63 103.134 34.39 101.12 34.39C98.3078 34.39 96.4838 32.794 95.9898 30.02H110.278C110.316 29.526 110.354 29.032 110.354 28.5ZM100.93 22.61C103.59 22.61 105.338 24.13 105.832 26.79H96.0278C96.5218 24.13 98.2698 22.61 100.93 22.61Z" fill="black"/>
<path d="M142.877 38H147.437V9.49999H139.533L135.277 31.388L130.869 9.49999H123.117V38H127.297V13.072L132.351 38H137.861L142.877 13.262V38Z" fill="black"/>
<path d="M164.243 38H168.727V24.776C168.727 20.33 164.851 18.62 160.671 18.62C156.415 18.62 152.387 20.52 152.387 25.46H157.137C157.137 23.332 158.581 22.23 160.671 22.23C162.647 22.23 164.167 23.104 164.167 24.586C164.167 28.386 151.817 24.738 151.817 32.908C151.817 36.746 154.933 38.38 158.201 38.38C160.823 38.38 163.027 37.43 164.243 35.188V38ZM156.491 32.604C156.491 30.172 161.203 30.552 164.243 29.298V30.172C164.243 33.06 161.811 34.58 159.151 34.58C157.631 34.58 156.491 33.934 156.491 32.604Z" fill="black"/>
<path d="M178.22 27.55C178.22 24.358 179.74 22.61 182.21 22.61C184.68 22.61 186.2 24.358 186.2 27.55V38H190.76V26.638C190.76 21.28 187.72 18.62 183.692 18.62C181.336 18.62 179.398 19.722 178.22 21.736V19H173.66V38H178.22V27.55Z" fill="black"/>
<path d="M207.365 38H211.849V24.776C211.849 20.33 207.973 18.62 203.793 18.62C199.537 18.62 195.509 20.52 195.509 25.46H200.259C200.259 23.332 201.703 22.23 203.793 22.23C205.769 22.23 207.289 23.104 207.289 24.586C207.289 28.386 194.939 24.738 194.939 32.908C194.939 36.746 198.055 38.38 201.323 38.38C203.945 38.38 206.149 37.43 207.365 35.188V38ZM199.613 32.604C199.613 30.172 204.325 30.552 207.365 29.298V30.172C207.365 33.06 204.933 34.58 202.273 34.58C200.753 34.58 199.613 33.934 199.613 32.604Z" fill="black"/>
<path d="M234.831 38V19H230.271V21.394C228.865 19.646 226.851 18.62 224.571 18.62C219.365 18.62 215.451 22.686 215.451 28.5C215.451 34.314 219.365 38.38 224.571 38.38C226.851 38.38 228.865 37.354 230.271 35.606V38C230.271 41.344 228.447 43.7 225.331 43.7C222.709 43.7 220.847 42.028 220.429 39.52H215.831C216.515 44.498 220.277 47.88 225.331 47.88C230.575 47.88 234.831 43.814 234.831 38ZM225.141 34.2C222.215 34.2 220.011 31.92 220.011 28.5C220.011 25.08 222.215 22.8 225.141 22.8C228.067 22.8 230.271 25.08 230.271 28.5C230.271 31.92 228.067 34.2 225.141 34.2Z" fill="black"/>
<path d="M257.678 28.5C257.678 22.686 253.688 18.62 248.254 18.62C242.82 18.62 238.83 22.686 238.83 28.5C238.83 34.314 242.82 38.38 248.254 38.38C252.738 38.38 256.044 36.252 257.184 32.3H252.244C251.636 33.63 250.458 34.39 248.444 34.39C245.632 34.39 243.808 32.794 243.314 30.02H257.602C257.64 29.526 257.678 29.032 257.678 28.5ZM248.254 22.61C250.914 22.61 252.662 24.13 253.156 26.79H243.352C243.846 24.13 245.594 22.61 248.254 22.61Z" fill="black"/>
<path d="M266.243 28.31C266.243 25.118 268.219 23.37 271.601 23.37C272.361 23.37 273.045 23.484 273.577 23.674V18.696C273.349 18.62 272.969 18.62 272.627 18.62C269.853 18.62 267.611 19.836 266.243 22.078V19H261.683V38H266.243V28.31Z" fill="black"/>
<path d="M1.08001 54.542C1.08001 56.36 2.14201 57.404 3.42001 58.268L4.73401 59.168C5.72401 59.834 6.51601 60.608 6.51601 61.85C6.51601 63.11 5.70601 63.866 4.41001 63.866C3.15001 63.866 2.30401 62.948 2.30401 61.454V60.644H0.864014V61.58C0.864014 63.902 2.44801 65.18 4.41001 65.18C6.37201 65.18 7.95601 64.01 7.95601 61.67C7.95601 59.924 6.91201 58.898 5.68801 58.052L4.33801 57.134C3.34801 56.468 2.52001 55.766 2.52001 54.542C2.52001 53.318 3.27601 52.634 4.39201 52.634C5.56201 52.634 6.30001 53.372 6.30001 54.974V55.676H7.74001V54.92C7.74001 52.49 6.28201 51.32 4.39201 51.32C2.57401 51.32 1.08001 52.238 1.08001 54.542Z" fill="#B7B7B7"/>
<path d="M18.3981 60.5C18.3981 57.746 16.5441 55.82 14.0061 55.82C11.4681 55.82 9.61412 57.746 9.61412 60.5C9.61412 63.254 11.4681 65.18 14.0061 65.18C16.0401 65.18 17.5881 64.118 18.1641 62.3H16.5981C16.2021 63.308 15.3021 63.92 14.0601 63.92C12.3861 63.92 11.2161 62.804 11.0181 61.004H18.3801C18.3801 60.824 18.3981 60.68 18.3981 60.5ZM14.0061 57.08C15.6441 57.08 16.7781 58.16 16.9761 59.942H11.0361C11.2341 58.16 12.3681 57.08 14.0061 57.08Z" fill="#B7B7B7"/>
<path d="M22.4194 61.922V57.26H25.2634V56H22.4194V53.372H20.9794V56H19.4674V57.26H20.9794V62.012C20.9794 64.46 22.2034 65.18 23.8774 65.18C24.3814 65.18 24.9394 65.072 25.2634 64.964V63.686C24.9574 63.776 24.6154 63.866 24.1474 63.866C22.9774 63.866 22.4194 63.254 22.4194 61.922Z" fill="#B7B7B7"/>
<path d="M28.9651 64.28C28.9651 63.542 28.4971 63.092 27.8851 63.092C27.2911 63.092 26.8411 63.56 26.8411 64.136C26.8411 64.73 27.2911 65.18 27.8851 65.18C27.7231 65.792 27.3991 66.422 26.9671 67.16H27.8311C28.4971 66.134 28.9651 65.09 28.9651 64.28Z" fill="#B7B7B7"/>
<path d="M41.6772 65H43.1172V51.5H41.6772V57.62C40.9572 56.504 39.8232 55.82 38.4732 55.82C36.0072 55.82 34.1532 57.746 34.1532 60.5C34.1532 63.254 36.0072 65.18 38.4732 65.18C39.8232 65.18 40.9572 64.496 41.6772 63.38V65ZM38.6352 57.134C40.3632 57.134 41.6772 58.484 41.6772 60.5C41.6772 62.516 40.3632 63.866 38.6352 63.866C36.9072 63.866 35.5932 62.516 35.5932 60.5C35.5932 58.484 36.9072 57.134 38.6352 57.134Z" fill="#B7B7B7"/>
<path d="M54.0114 60.5C54.0114 57.746 52.1574 55.82 49.6194 55.82C47.0814 55.82 45.2274 57.746 45.2274 60.5C45.2274 63.254 47.0814 65.18 49.6194 65.18C51.6534 65.18 53.2014 64.118 53.7774 62.3H52.2114C51.8154 63.308 50.9154 63.92 49.6734 63.92C47.9994 63.92 46.8294 62.804 46.6314 61.004H53.9934C53.9934 60.824 54.0114 60.68 54.0114 60.5ZM49.6194 57.08C51.2574 57.08 52.3914 58.16 52.5894 59.942H46.6494C46.8474 58.16 47.9814 57.08 49.6194 57.08Z" fill="#B7B7B7"/>
<path d="M57.5647 65V51.5H56.1247V65H57.5647Z" fill="#B7B7B7"/>
<path d="M68.4606 60.5C68.4606 57.746 66.6066 55.82 64.0686 55.82C61.5306 55.82 59.6766 57.746 59.6766 60.5C59.6766 63.254 61.5306 65.18 64.0686 65.18C66.1026 65.18 67.6506 64.118 68.2266 62.3H66.6606C66.2646 63.308 65.3646 63.92 64.1226 63.92C62.4486 63.92 61.2786 62.804 61.0806 61.004H68.4426C68.4426 60.824 68.4606 60.68 68.4606 60.5ZM64.0686 57.08C65.7066 57.08 66.8406 58.16 67.0386 59.942H61.0986C61.2966 58.16 62.4306 57.08 64.0686 57.08Z" fill="#B7B7B7"/>
<path d="M72.4819 61.922V57.26H75.3259V56H72.4819V53.372H71.0419V56H69.5299V57.26H71.0419V62.012C71.0419 64.46 72.2659 65.18 73.9399 65.18C74.4439 65.18 75.0019 65.072 75.3259 64.964V63.686C75.0199 63.776 74.6779 63.866 74.2099 63.866C73.0399 63.866 72.4819 63.254 72.4819 61.922Z" fill="#B7B7B7"/>
<path d="M85.5817 60.5C85.5817 57.746 83.7277 55.82 81.1897 55.82C78.6517 55.82 76.7977 57.746 76.7977 60.5C76.7977 63.254 78.6517 65.18 81.1897 65.18C83.2237 65.18 84.7717 64.118 85.3477 62.3H83.7817C83.3857 63.308 82.4857 63.92 81.2437 63.92C79.5697 63.92 78.3997 62.804 78.2017 61.004H85.5637C85.5637 60.824 85.5817 60.68 85.5817 60.5ZM81.1897 57.08C82.8277 57.08 83.9617 58.16 84.1597 59.942H78.2197C78.4177 58.16 79.5517 57.08 81.1897 57.08Z" fill="#B7B7B7"/>
<path d="M97.6575 65H99.0795V58.664C99.0795 56.612 97.3155 55.82 95.4075 55.82C93.4635 55.82 91.6275 56.702 91.6275 58.988H93.1035C93.1035 57.656 94.0755 56.972 95.4075 56.972C96.6855 56.972 97.6395 57.548 97.6395 58.61C97.6395 60.914 91.3575 58.736 91.3575 62.66C91.3575 64.388 92.7975 65.18 94.4535 65.18C95.8035 65.18 97.0455 64.622 97.6575 63.344V65ZM92.8335 62.57C92.8335 60.68 96.0915 61.31 97.6575 60.428V61.292C97.6575 63.038 96.2355 63.974 94.7235 63.974C93.6075 63.974 92.8335 63.506 92.8335 62.57Z" fill="#B7B7B7"/>
<path d="M103.18 60.14C103.18 58.088 104.134 57.08 105.646 57.08C107.158 57.08 108.112 58.088 108.112 60.14V65H109.552V59.834C109.552 57.062 108.076 55.82 106.06 55.82C104.782 55.82 103.738 56.414 103.18 57.584V56H101.74V65H103.18V60.14Z" fill="#B7B7B7"/>
<path d="M119.091 65H120.531V51.5H119.091V57.62C118.371 56.504 117.237 55.82 115.887 55.82C113.421 55.82 111.567 57.746 111.567 60.5C111.567 63.254 113.421 65.18 115.887 65.18C117.237 65.18 118.371 64.496 119.091 63.38V65ZM116.049 57.134C117.777 57.134 119.091 58.484 119.091 60.5C119.091 62.516 117.777 63.866 116.049 63.866C114.321 63.866 113.007 62.516 113.007 60.5C113.007 58.484 114.321 57.134 116.049 57.134Z" fill="#B7B7B7"/>
<path d="M128.932 59.816C128.932 57.98 129.76 57.08 131.11 57.08C132.46 57.08 133.288 57.98 133.288 59.816V65H134.728V59.816C134.728 57.98 135.556 57.08 136.942 57.08C138.274 57.08 139.084 57.98 139.084 59.816V65H140.524V59.51C140.524 56.972 139.174 55.82 137.356 55.82C136.024 55.82 134.944 56.468 134.44 57.746C133.954 56.432 132.856 55.82 131.524 55.82C130.39 55.82 129.454 56.342 128.932 57.368V56H127.492V65H128.932V59.816Z" fill="#B7B7B7"/>
<path d="M147.058 65.18C149.65 65.18 151.576 63.254 151.576 60.5C151.576 57.746 149.65 55.82 147.058 55.82C144.466 55.82 142.54 57.746 142.54 60.5C142.54 63.254 144.466 65.18 147.058 65.18ZM147.058 63.866C145.312 63.866 143.98 62.516 143.98 60.5C143.98 58.484 145.312 57.134 147.058 57.134C148.804 57.134 150.136 58.484 150.136 60.5C150.136 62.516 148.804 63.866 147.058 63.866Z" fill="#B7B7B7"/>
<path d="M155.123 60.572C155.123 58.358 156.203 57.296 158.057 57.296C158.417 57.296 158.759 57.35 159.029 57.458V55.91C158.831 55.838 158.579 55.82 158.345 55.82C156.905 55.82 155.753 56.486 155.123 57.8V56H153.683V65H155.123V60.572Z" fill="#B7B7B7"/>
<path d="M169.025 60.5C169.025 57.746 167.171 55.82 164.633 55.82C162.095 55.82 160.241 57.746 160.241 60.5C160.241 63.254 162.095 65.18 164.633 65.18C166.667 65.18 168.215 64.118 168.791 62.3H167.225C166.829 63.308 165.929 63.92 164.687 63.92C163.013 63.92 161.843 62.804 161.645 61.004H169.007C169.007 60.824 169.025 60.68 169.025 60.5ZM164.633 57.08C166.271 57.08 167.405 58.16 167.603 59.942H161.663C161.861 58.16 162.995 57.08 164.633 57.08Z" fill="#B7B7B7"/>
<path d="M172.578 60.5L172.686 51.5H171.138L171.246 60.5H172.578ZM171.912 65.18C172.47 65.18 172.902 64.73 172.902 64.19C172.902 63.65 172.47 63.2 171.912 63.2C171.372 63.2 170.922 63.65 170.922 64.19C170.922 64.73 171.372 65.18 171.912 65.18Z" fill="#B7B7B7"/>
</svg>
